<svg width="16" height="16" viewBox="0 0 16 16" fill="none" xmlns="http://www.w3.org/2000/svg">
<path d="M7.83337 0.375C11.9642 0.375 15.3334 3.74414 15.3334 7.875C15.3334 12.0352 11.9642 15.375 7.83337 15.375C3.67322 15.375 0.333374 12.0352 0.333374 7.875C0.333374 3.74414 3.67322 0.375 7.83337 0.375ZM11.2025 6.58594C11.5248 6.26367 11.5248 5.76562 11.2025 5.44336C10.8802 5.12109 10.3822 5.12109 10.0599 5.44336L6.89587 8.60742L5.57751 7.31836C5.25525 6.99609 4.7572 6.99609 4.43494 7.31836C4.11267 7.64062 4.11267 8.13867 4.43494 8.46094L6.30994 10.3359C6.45642 10.5117 6.6615 10.5703 6.89587 10.5703C7.10095 10.5703 7.30603 10.5117 7.45251 10.3359L11.2025 6.58594Z" fill="#3DB6BA"/>
</svg>
