<svg width="14" height="13" viewBox="0 0 14 13" fill="none" xmlns="http://www.w3.org/2000/svg">
<path d="M12.3984 5.54688C13.1914 6.33984 13.1914 7.625 12.3984 8.41797L8.51562 12.3008C8.13281 12.6836 7.61328 12.875 7.09375 12.875C6.57422 12.875 6.05469 12.6836 5.64453 12.3008L1.32422 7.98047C0.996094 7.625 0.722656 7.02344 0.722656 6.53125V1.99219C0.722656 1.22656 1.32422 0.625 2.0625 0.625H6.62891C7.12109 0.625 7.72266 0.898438 8.07812 1.22656L12.3984 5.54688ZM11.4688 7.48828C11.7422 7.21484 11.7422 6.75 11.4688 6.47656L7.14844 2.15625C7.03906 2.07422 6.76562 1.96484 6.62891 1.96484H2.0625L2.03516 1.99219V6.53125C2.03516 6.66797 2.17188 6.94141 2.25391 7.05078L6.57422 11.3711C6.84766 11.6445 7.3125 11.6445 7.58594 11.3711L11.4688 7.48828ZM4.44141 3.6875C4.44141 3.33203 4.16797 3.03125 3.78516 3.03125C3.42969 3.03125 3.12891 3.33203 3.12891 3.6875C3.12891 4.07031 3.40234 4.34375 3.78516 4.34375C4.14062 4.34375 4.44141 4.07031 4.44141 3.6875Z" fill="black"/>
</svg>
